<?xml version="1.0" standalone="no"?>
<!DOCTYPE svg PUBLIC "-//W3C//DTD SVG 20010904//EN"
 "http://www.w3.org/TR/2001/REC-SVG-20010904/DTD/svg10.dtd">
<svg version="1.0" xmlns="http://www.w3.org/2000/svg"
 width="512.000000pt" height="512.000000pt" viewBox="0 0 512.000000 512.000000"
 preserveAspectRatio="xMidYMid meet">
<metadata>
Created by potrace 1.14, written by Peter Selinger 2001-2017
</metadata>
<g transform="translate(0.000000,512.000000) scale(0.100000,-0.100000)"
fill="#000000" stroke="none">
<path d="M4264 5090 c-75 -11 -219 -65 -299 -112 -67 -39 -208 -171 -265 -247
-25 -33 -26 -34 -55 -19 -38 20 -232 85 -293 99 -69 16 -71 16 -142 24 -36 4
-78 9 -93 10 -187 23 -470 23 -585 0 -11 -2 -37 -6 -58 -9 -138 -22 -348 -99
-468 -172 -309 -189 -503 -486 -553 -844 -13 -91 -9 -368 6 -445 47 -235 205
-559 427 -875 71 -101 314 -435 346 -475 113 -141 311 -449 392 -613 84 -166
126 -352 120 -529 -7 -221 -80 -340 -238 -393 -61 -20 -178 -19 -269 2 -115
27 -306 120 -397 195 -264 215 -414 420 -523 713 -31 82 -120 402 -134 479 -2
14 -9 46 -14 71 -14 59 -15 63 -29 147 -6 40 -14 85 -16 100 -3 15 -7 109 -9
208 -4 147 -2 192 12 238 9 32 14 60 11 63 -15 14 -248 -67 -248 -87 0 -4 -9
-10 -19 -14 -31 -10 -126 -106 -165 -168 -58 -91 -126 -268 -150 -392 -4 -16
-9 -41 -11 -55 -29 -142 -26 -468 4 -628 56 -289 163 -503 343 -683 193 -194
505 -349 793 -395 21 -3 45 -7 54 -9 17 -3 95 -13 166 -20 47 -5 376 -6 420
-1 17 2 57 6 90 10 33 4 71 9 85 11 14 3 41 7 60 10 234 38 476 142 650 281
229 181 342 414 344 704 2 378 -106 638 -532 1278 -277 416 -397 669 -437 923
-10 65 -12 207 -3 271 45 337 307 705 548 768 91 24 223 15 291 -20 63 -33
109 -66 109 -81 0 -9 -9 -42 -21 -75 -31 -91 -75 -268 -94 -379 -9 -55 -18
-110 -20 -123 -26 -155 -27 -455 -2 -562 32 -137 78 -188 158 -175 33 6 39 10
40 33 6 117 49 305 106 457 34 92 148 327 212 439 28 49 51 90 51 92 0 9 180
269 228 329 79 99 111 133 250 276 144 146 162 171 162 221 0 61 -18 86 -84
118 -67 33 -157 44 -252 30z"/>
</g>
</svg>
