<svg viewBox="0 0 225.1 116" xmlns="http://www.w3.org/2000/svg">
  <title>Social</title>
  <g fill-rule="evenodd" fill="currentColor" stroke="currentColor" stroke-width="0.2mm">
    <path d="M 82.6 61.1 L 82.4 61.4 Q 80.9 63.6 79.1 65.45 Q 77.3 67.3 75.1 68.5 Q 73.8 69.2 72.3 69.6 A 11.822 11.822 0 0 1 70.308 69.959 A 10.176 10.176 0 0 1 69.4 70 Q 67.1 70 65.15 68.9 A 6.228 6.228 0 0 1 62.98 66.822 A 8.742 8.742 0 0 1 62.2 65.3 A 8.331 8.331 0 0 1 61.747 63.77 Q 61.5 62.544 61.5 61 A 19.525 19.525 0 0 1 62.293 55.572 A 22.805 22.805 0 0 1 62.7 54.3 A 30.46 30.46 0 0 1 66.522 46.647 A 28.063 28.063 0 0 1 67.8 44.95 A 28.763 28.763 0 0 1 72.218 40.552 A 24.559 24.559 0 0 1 75.15 38.55 Q 79.2 36.2 83.3 36.2 A 10.798 10.798 0 0 1 85.309 36.374 Q 86.405 36.582 87.253 37.039 A 4.971 4.971 0 0 1 88.7 38.2 A 7.017 7.017 0 0 1 90.251 41.556 A 9.733 9.733 0 0 1 90.4 43.3 A 16.2 16.2 0 0 1 90.207 45.749 A 19.775 19.775 0 0 1 89.95 47.1 Q 89.5 49.1 88.8 51.1 Q 87.8 53.9 86.2 56.2 A 80.675 80.675 0 0 1 85.249 57.54 Q 84.323 58.816 83.602 59.679 A 22.927 22.927 0 0 1 83.5 59.8 Q 85.412 60.843 87.436 60.187 A 6.154 6.154 0 0 0 88.05 59.95 A 12.636 12.636 0 0 0 91.116 57.986 A 15.726 15.726 0 0 0 92.4 56.75 A 35.153 35.153 0 0 0 93.997 54.917 A 24.967 24.967 0 0 0 94.151 54.725 A 22.188 22.188 0 0 1 94.618 53.651 Q 95.419 51.913 96.6 50 A 28.644 28.644 0 0 1 97.708 48.382 Q 98.613 47.145 99.8 45.75 A 38.171 38.171 0 0 1 103.119 42.327 A 44.394 44.394 0 0 1 104.4 41.2 A 26.143 26.143 0 0 1 109.539 37.778 A 24.431 24.431 0 0 1 109.9 37.6 A 14.201 14.201 0 0 1 113.344 36.431 A 12.216 12.216 0 0 1 115.7 36.2 A 13.249 13.249 0 0 1 117.362 36.297 Q 119.159 36.524 120.155 37.292 A 3.23 3.23 0 0 1 120.55 37.65 Q 121.9 39.1 121.9 41.1 A 8.98 8.98 0 0 1 121.391 44.05 A 10.249 10.249 0 0 1 121.3 44.3 A 13.809 13.809 0 0 1 120.737 45.604 Q 120.35 46.381 119.9 47 A 13.136 13.136 0 0 1 119.081 47.994 Q 118.651 48.464 118.227 48.814 A 5.79 5.79 0 0 1 117.55 49.3 A 5.283 5.283 0 0 1 116.589 49.766 A 3.801 3.801 0 0 1 115.3 50 A 3.199 3.199 0 0 1 114.403 49.881 A 2.403 2.403 0 0 1 113.25 49.15 A 2.797 2.797 0 0 1 112.907 48.674 Q 112.658 48.232 112.658 47.777 A 1.732 1.732 0 0 1 112.7 47.4 A 8.715 8.715 0 0 0 114.491 46.726 A 11.838 11.838 0 0 0 115.95 45.85 Q 117.6 44.7 118.8 43.35 A 8.778 8.778 0 0 0 119.374 42.638 Q 120.028 41.727 120.1 41 A 4.99 4.99 0 0 0 120.132 40.694 Q 120.222 39.432 119.55 38.85 A 2.6 2.6 0 0 0 118.344 38.271 A 3.714 3.714 0 0 0 117.6 38.2 A 4.866 4.866 0 0 0 116.34 38.385 Q 115.15 38.706 113.635 39.585 A 21.34 21.34 0 0 0 112.95 40 Q 110.19 41.744 107.382 44.661 A 42.483 42.483 0 0 0 107.2 44.85 Q 104.3 47.9 102.1 51.6 Q 100.3 54.7 99.05 57.95 Q 98.012 60.65 97.836 62.902 A 11.547 11.547 0 0 0 97.8 63.8 A 7.283 7.283 0 0 0 97.92 65.147 A 5.846 5.846 0 0 0 98.2 66.15 Q 98.6 67.2 99.5 67.8 A 2.852 2.852 0 0 0 100.521 68.276 Q 100.917 68.377 101.382 68.396 A 5.364 5.364 0 0 0 101.6 68.4 A 7.943 7.943 0 0 0 103.461 68.158 Q 105.214 67.734 107.401 66.567 A 28.388 28.388 0 0 0 107.8 66.35 A 30.634 30.634 0 0 0 111.732 63.735 A 41.437 41.437 0 0 0 115.2 60.7 A 35.414 35.414 0 0 0 119.756 55.253 A 60.311 60.311 0 0 1 120.231 54.36 Q 120.78 53.352 121.25 52.6 L 122 51.4 L 131.8 36.9 Q 132.4 36.4 133.3 36.25 Q 134.2 36.1 135.2 36.1 A 13.128 13.128 0 0 1 136.272 36.141 Q 136.777 36.183 137.216 36.266 A 6.837 6.837 0 0 1 137.6 36.35 A 3.069 3.069 0 0 1 137.884 36.434 Q 138.527 36.663 138.418 37.049 A 0.516 0.516 0 0 1 138.4 37.1 L 128.5 51.8 A 16.349 16.349 0 0 0 128.341 52.019 Q 127.891 52.641 126.55 54.55 A 48.146 48.146 0 0 0 124.256 58.161 A 56.064 56.064 0 0 0 123.4 59.7 A 21.457 21.457 0 0 0 122.399 61.79 Q 121.978 62.817 121.754 63.741 A 8.348 8.348 0 0 0 121.5 65.7 Q 121.5 67.995 123.307 68.339 A 3.71 3.71 0 0 0 124 68.4 A 4.671 4.671 0 0 0 124.65 68.351 Q 124.977 68.305 125.348 68.215 A 10.656 10.656 0 0 0 125.95 68.05 A 10.884 10.884 0 0 0 126.862 67.724 Q 127.663 67.4 128.6 66.9 A 22.333 22.333 0 0 0 132.867 63.736 Q 136.52 60.358 140.27 54.636 A 83.565 83.565 0 0 0 140.427 54.396 A 35.573 35.573 0 0 1 141 52.9 Q 142.066 50.285 144.164 47.528 A 32.94 32.94 0 0 1 144.3 47.35 A 34.688 34.688 0 0 1 149.389 42.06 A 36.292 36.292 0 0 1 149.4 42.05 Q 152.3 39.6 155.65 38.05 A 16.254 16.254 0 0 1 161.846 36.514 A 15.724 15.724 0 0 1 162.5 36.5 Q 164.001 36.5 164.977 36.933 A 2.916 2.916 0 0 1 166.2 37.9 A 5.318 5.318 0 0 1 167.119 40.208 A 7.083 7.083 0 0 1 167.2 41.3 A 13.113 13.113 0 0 1 166.834 44.33 A 15.33 15.33 0 0 1 166.6 45.2 L 172.2 36.7 A 1.725 1.725 0 0 1 172.657 36.481 Q 173.419 36.227 174.961 36.203 A 21.309 21.309 0 0 1 175.3 36.2 A 14.676 14.676 0 0 1 178.531 36.549 A 13.636 13.636 0 0 1 178.75 36.6 A 4.698 4.698 0 0 1 179.142 36.712 Q 180.309 37.105 179.7 37.8 Q 178.93 38.763 177.095 40.698 A 141.629 141.629 0 0 1 176.95 40.85 A 64.049 64.049 0 0 0 175.056 42.937 Q 174.085 44.053 173.048 45.332 A 107.074 107.074 0 0 0 172.75 45.7 Q 170.5 48.5 168.5 51.6 Q 167.5 53.3 165.55 56.6 Q 163.6 59.9 162.5 62.9 A 16.732 16.732 0 0 0 162.191 63.932 Q 161.931 64.919 161.904 65.635 A 4.324 4.324 0 0 0 161.9 65.8 A 3.568 3.568 0 0 0 161.98 66.589 Q 162.278 67.9 163.7 67.9 A 3.696 3.696 0 0 0 164.391 67.827 Q 165.094 67.693 166.029 67.309 A 15.691 15.691 0 0 0 166.4 67.15 A 13.985 13.985 0 0 0 168.869 65.734 A 16.515 16.515 0 0 0 169.7 65.1 A 27.221 27.221 0 0 0 175.131 59.105 A 30.488 30.488 0 0 0 175.3 58.85 A 665.832 665.832 0 0 1 177.305 55.819 Q 178.225 54.436 179.056 53.204 A 382.896 382.896 0 0 1 179.577 52.434 A 67.325 67.325 0 0 1 179.8 51.8 A 118.054 118.054 0 0 1 181.647 47.315 Q 182.6 45.122 183.725 42.736 A 192.023 192.023 0 0 1 184.05 42.05 A 155.643 155.643 0 0 1 188.269 33.856 A 179.435 179.435 0 0 1 189.85 31.05 Q 193.1 25.4 196.75 20.1 A 96.132 96.132 0 0 1 201.887 13.285 A 82.41 82.41 0 0 1 204.3 10.5 A 58.682 58.682 0 0 1 207.706 6.951 A 50.787 50.787 0 0 1 208.95 5.8 A 30.542 30.542 0 0 1 211.433 3.795 A 23.414 23.414 0 0 1 213.6 2.4 A 19.882 19.882 0 0 1 216.211 1.034 Q 217.688 0.404 219.069 0.158 A 9.863 9.863 0 0 1 220.8 0 A 6.8 6.8 0 0 1 222.068 0.111 Q 222.789 0.248 223.359 0.554 A 3.598 3.598 0 0 1 223.95 0.95 A 2.977 2.977 0 0 1 224.896 2.4 Q 225.1 3.056 225.1 3.9 Q 225.1 5.2 224.55 6.85 Q 224.132 8.105 223.28 9.621 A 27.135 27.135 0 0 1 222.7 10.6 Q 220.24 14.735 216.374 19.256 A 87.147 87.147 0 0 1 216.25 19.4 Q 212.3 24 207.7 28.35 Q 203.1 32.7 198.45 36.3 A 86.118 86.118 0 0 1 194.212 39.389 Q 192.17 40.78 190.247 41.889 A 52.334 52.334 0 0 1 189.7 42.2 A 94.548 94.548 0 0 0 186.468 48.596 A 105.618 105.618 0 0 0 185.9 49.85 A 72.648 72.648 0 0 0 184.097 54.28 A 57.921 57.921 0 0 0 183 57.55 Q 182.209 60.177 181.987 62.26 A 14.565 14.565 0 0 0 181.9 63.8 A 8.145 8.145 0 0 0 181.995 65.081 Q 182.105 65.77 182.343 66.332 A 4.04 4.04 0 0 0 182.7 67 A 2.607 2.607 0 0 0 184.523 68.147 A 4.096 4.096 0 0 0 185.2 68.2 Q 187.4 68.2 190.3 66.2 A 28.574 28.574 0 0 0 192.886 64.173 Q 194.155 63.061 195.469 61.692 A 52.026 52.026 0 0 0 196.35 60.75 A 47.973 47.973 0 0 0 200.151 55.988 A 59.507 59.507 0 0 0 202.3 52.7 Q 202.8 52.1 203.3 52.1 A 0.396 0.396 0 0 1 203.617 52.256 Q 203.694 52.35 203.75 52.5 A 0.988 0.988 0 0 1 203.812 52.779 Q 203.831 53.039 203.7 53.3 A 88.731 88.731 0 0 1 200.061 58.482 Q 197.057 62.431 194.15 65.15 A 20.233 20.233 0 0 1 191.112 67.525 Q 189.22 68.713 187.321 69.187 A 10.387 10.387 0 0 1 184.8 69.5 Q 184.4 69.5 183.9 69.45 Q 183.4 69.4 182.9 69.3 Q 180.522 68.726 179.253 67.311 A 5.16 5.16 0 0 1 178.75 66.65 A 7.736 7.736 0 0 1 177.677 63.883 A 10.66 10.66 0 0 1 177.5 61.9 A 17.158 17.158 0 0 1 177.706 59.314 A 22.52 22.52 0 0 1 178.137 57.203 A 206.452 206.452 0 0 1 176.998 58.815 A 175.927 175.927 0 0 1 175.3 61.15 Q 172.6 64.8 169.8 67 A 10.412 10.412 0 0 1 166.684 68.717 A 9.296 9.296 0 0 1 163.7 69.2 A 7.061 7.061 0 0 1 161.898 68.982 A 5.088 5.088 0 0 1 159.55 67.65 A 5.125 5.125 0 0 1 158.184 65.121 A 7.632 7.632 0 0 1 158 63.4 Q 158 62.2 158.25 60.9 Q 158.5 59.6 158.9 58.5 Q 157.525 60.305 155.597 62.405 A 82.196 82.196 0 0 1 154.95 63.1 Q 152.6 65.6 150 67.4 A 11.175 11.175 0 0 1 147.847 68.582 A 8.052 8.052 0 0 1 144.8 69.2 A 5.792 5.792 0 0 1 142.883 68.898 A 4.783 4.783 0 0 1 140.5 67.05 Q 139 64.9 139 61.5 A 16.859 16.859 0 0 1 139.294 58.486 A 77.782 77.782 0 0 1 136.073 62.541 A 65.164 65.164 0 0 1 135.85 62.8 Q 132.4 66.8 128.6 68.6 A 12.657 12.657 0 0 1 126.049 69.519 A 10.141 10.141 0 0 1 123.7 69.8 Q 121 69.8 119.15 68.15 A 5.331 5.331 0 0 1 117.519 65.36 Q 117.307 64.494 117.301 63.467 A 10.305 10.305 0 0 1 117.3 63.4 A 10.421 10.421 0 0 1 117.407 61.961 Q 117.508 61.241 117.703 60.443 A 20.019 20.019 0 0 1 117.815 60.008 A 47.01 47.01 0 0 1 116.4 61.55 A 36.397 36.397 0 0 1 112.385 65.175 A 28.721 28.721 0 0 1 108.7 67.6 A 19.125 19.125 0 0 1 105.117 69.142 A 14.281 14.281 0 0 1 100.9 69.8 Q 99.1 69.8 97.4 69.2 A 6.355 6.355 0 0 1 94.719 67.366 A 8.331 8.331 0 0 1 94.05 66.5 A 7.526 7.526 0 0 1 92.982 64.004 Q 92.74 62.984 92.706 61.794 A 13.76 13.76 0 0 1 92.7 61.4 A 14.013 14.013 0 0 1 92.898 59.123 A 20.018 20.018 0 0 1 93.04 58.371 A 19.204 19.204 0 0 1 91.784 59.473 A 14.189 14.189 0 0 1 89.7 60.85 A 11.022 11.022 0 0 1 88.144 61.546 Q 86.876 61.991 85.707 61.991 A 5.844 5.844 0 0 1 82.6 61.1 Z M 8.1 72.2 L 8.3 72.9 Q 8.3 73.282 8.027 73.299 A 0.421 0.421 0 0 1 8 73.3 Q 7.376 73.3 6.842 72.659 A 3.604 3.604 0 0 1 6.55 72.25 A 4.2 4.2 0 0 1 5.9 70 A 3.307 3.307 0 0 1 5.992 69.202 A 2.406 2.406 0 0 1 6.5 68.2 A 3.705 3.705 0 0 1 7.494 67.409 Q 7.923 67.169 8.45 67 A 8.335 8.335 0 0 1 10.203 66.634 A 7.36 7.36 0 0 1 10.9 66.6 Q 11.7 66.6 12.4 66.8 A 18.668 18.668 0 0 1 11.727 66.232 Q 10.985 65.578 10.036 64.636 A 61.979 61.979 0 0 1 9.9 64.5 Q 8.4 63 6.95 61.4 Q 5.5 59.8 4.8 58.7 A 41.89 41.89 0 0 1 2.753 54.944 Q 1.761 52.866 1.15 50.9 A 25.951 25.951 0 0 1 0.19 46.612 A 21.371 21.371 0 0 1 0 43.8 A 19.588 19.588 0 0 1 0.61 38.812 A 15.821 15.821 0 0 1 2.6 34.25 Q 5.2 30.2 9.5 27.9 Q 13.8 25.6 18.9 25.6 A 23.009 23.009 0 0 1 27.029 27.124 A 27.749 27.749 0 0 1 29.1 28 L 29.2 28 Q 29.7 28 30.2 28.05 A 10.922 10.922 0 0 0 30.647 28.086 Q 30.858 28.098 31.047 28.1 A 6.563 6.563 0 0 0 31.1 28.1 Q 32.2 28.1 33.15 27.9 Q 34.1 27.7 34.9 27.3 Q 34.8 27.1 34.6 26.8 A 1.193 1.193 0 0 1 34.407 26.241 A 1.5 1.5 0 0 1 34.4 26.1 L 34.4 25.6 A 2.674 2.674 0 0 1 34.471 24.966 A 1.783 1.783 0 0 1 35 24.05 A 5.69 5.69 0 0 1 35.401 23.713 Q 35.598 23.564 35.783 23.456 A 2.447 2.447 0 0 1 36.1 23.3 Q 36.7 22.9 37.35 22.45 A 2.703 2.703 0 0 0 37.782 22.084 Q 38.049 21.8 38.176 21.469 A 1.688 1.688 0 0 0 38.2 21.4 Q 38.38 21.041 38.398 20.722 A 1.254 1.254 0 0 0 38.4 20.65 L 38.4 20 A 8.6 8.6 0 0 0 38.388 19.532 Q 38.376 19.307 38.351 19.106 A 5.169 5.169 0 0 0 38.35 19.1 A 7.511 7.511 0 0 1 38.32 18.814 Q 38.308 18.673 38.303 18.546 A 4.039 4.039 0 0 1 38.3 18.4 A 4.299 4.299 0 0 1 39.733 20.111 A 5.952 5.952 0 0 1 40.1 21.1 A 19.217 19.217 0 0 1 40.364 22.157 Q 40.6 23.244 40.6 24 Q 40.6 26.2 39.45 27.25 A 4.504 4.504 0 0 1 38.548 27.9 A 3.231 3.231 0 0 1 37 28.3 A 3.991 3.991 0 0 1 36.451 28.265 Q 36.172 28.226 35.948 28.145 A 1.56 1.56 0 0 1 35.5 27.9 Q 34.5 28.6 33.35 28.8 A 13.19 13.19 0 0 1 31.238 28.999 A 12.153 12.153 0 0 1 31.1 29 L 31.7 29.4 A 37.44 37.44 0 0 1 38.155 34.8 A 41.261 41.261 0 0 1 38.25 34.9 Q 41.3 38.1 43.3 42 Q 45.3 40 47.45 38.15 Q 49.6 36.3 51.8 34.5 Q 51.7 33 51.65 31.55 Q 51.6 30.1 51.6 28.7 Q 51.6 22.8 53.1 17 Q 54.46 11.744 58.694 6.406 A 44.003 44.003 0 0 1 59.6 5.3 A 14.154 14.154 0 0 1 61.938 3.049 A 11.697 11.697 0 0 1 64.1 1.75 A 12.968 12.968 0 0 1 66.728 0.853 A 10.536 10.536 0 0 1 69 0.6 A 10.067 10.067 0 0 1 71.74 0.956 A 7.847 7.847 0 0 1 74.8 2.6 A 7.774 7.774 0 0 1 76.396 4.651 A 9.057 9.057 0 0 1 76.6 5.05 A 7.062 7.062 0 0 1 77.257 7.422 A 8.635 8.635 0 0 1 77.3 8.3 A 9.584 9.584 0 0 1 77.125 10.076 Q 76.964 10.929 76.655 11.857 A 17.078 17.078 0 0 1 76.5 12.3 Q 75.7 14.5 73.9 17 Q 72.3 19.2 69.4 21.9 Q 66.5 24.6 63.2 27.3 Q 59.9 30 57.2 32.3 Q 58 36 58.7 39.8 Q 59.4 43.6 59.4 47.4 A 29.346 29.346 0 0 1 58.478 54.613 A 32.746 32.746 0 0 1 58.35 55.1 A 20.206 20.206 0 0 1 56.384 59.816 A 26.377 26.377 0 0 1 54.4 62.8 Q 50.5 68 44.55 70.55 Q 38.6 73.1 32.2 73.1 Q 29 73.1 26 72.5 Q 25.3 74.7 24.85 76.95 Q 24.4 79.2 24.2 81.2 L 24.4 81.6 A 9.881 9.881 0 0 0 25.059 83.711 A 6.872 6.872 0 0 0 26.9 86.2 A 2.311 2.311 0 0 1 28.569 85.5 A 2.839 2.839 0 0 1 28.6 85.5 A 3.523 3.523 0 0 1 29.259 85.557 Q 29.614 85.624 29.873 85.773 A 1.313 1.313 0 0 1 30.5 86.6 A 8.113 8.113 0 0 0 31.002 87.763 Q 31.316 88.351 31.698 88.77 A 3.187 3.187 0 0 0 32.75 89.55 Q 34.2 90.2 34.9 90.3 Q 34.3 90.9 33.45 91.1 Q 32.6 91.3 31.7 91.3 A 8.631 8.631 0 0 1 30.904 91.265 A 6.99 6.99 0 0 1 30.4 91.2 Q 29.804 91.101 29.405 91.001 A 7.218 7.218 0 0 1 29.4 91 A 3.14 3.14 0 0 1 28.967 90.836 Q 28.51 90.628 27.906 90.228 A 15.515 15.515 0 0 1 27.5 89.95 A 3.232 3.232 0 0 1 26.817 89.313 A 2.384 2.384 0 0 1 26.3 87.8 Q 26.3 87.2 26.5 86.8 A 7.87 7.87 0 0 1 25.77 86.142 Q 25.297 85.655 25 85.15 A 13.228 13.228 0 0 1 24.28 83.73 A 15.142 15.142 0 0 1 24.1 83.3 Q 23.9 89.4 25.55 94.2 A 26.262 26.262 0 0 0 27.43 98.463 A 19.952 19.952 0 0 0 30.05 102.15 A 20.37 20.37 0 0 0 32.917 104.791 A 15.653 15.653 0 0 0 36.2 106.7 Q 39.1 107.9 42.4 107.9 Q 45.9 107.9 49.15 106.65 A 15.687 15.687 0 0 0 52.183 105.109 A 12.525 12.525 0 0 0 54.45 103.2 Q 56.5 101 56.5 98.2 L 56.5 97.6 A 1.887 1.887 0 0 0 56.401 97.002 A 2.009 2.009 0 0 0 56.4 97 A 2.363 2.363 0 0 0 56.216 96.352 Q 56.091 96.066 55.889 95.763 A 5.808 5.808 0 0 0 55.5 95.25 A 3.13 3.13 0 0 0 54.679 94.575 Q 54.284 94.343 53.779 94.167 A 7.983 7.983 0 0 0 52.8 93.9 Q 51.917 93.723 50.955 93.117 A 8.459 8.459 0 0 1 50.7 92.95 Q 49.6 92.2 49.2 90.9 A 0.67 0.67 0 0 1 49.153 90.768 Q 49.1 90.563 49.1 90.2 A 2.674 2.674 0 0 1 50.072 88.078 A 3.846 3.846 0 0 1 50.6 87.7 A 2.068 2.068 0 0 1 50.699 87.663 Q 51.074 87.535 51.099 87.722 A 0.214 0.214 0 0 1 51.1 87.75 A 0.834 0.834 0 0 1 51.081 87.921 Q 51.044 88.096 50.937 88.324 A 3.324 3.324 0 0 1 50.9 88.4 A 7.069 7.069 0 0 0 50.833 88.54 Q 50.7 88.819 50.7 88.9 Q 50.7 89.4 51.35 89.85 A 2.634 2.634 0 0 0 51.992 90.18 A 2.163 2.163 0 0 0 52.7 90.3 A 41.325 41.325 0 0 1 53.483 90.307 Q 53.869 90.314 54.209 90.329 A 21.261 21.261 0 0 1 54.6 90.35 A 7.378 7.378 0 0 1 55.653 90.49 A 6.409 6.409 0 0 1 56.1 90.6 A 6.591 6.591 0 0 0 55.98 90.097 A 5.051 5.051 0 0 0 55.85 89.7 A 1.383 1.383 0 0 1 55.764 89.31 Q 55.749 89.105 55.8 88.9 A 4.987 4.987 0 0 1 55.937 88.241 Q 56.145 87.51 56.554 87.159 A 1.33 1.33 0 0 1 56.7 87.05 A 3.059 3.059 0 0 1 57.313 86.743 A 2.302 2.302 0 0 1 58.1 86.6 Q 58.369 86.6 58.728 86.69 A 5.165 5.165 0 0 1 59.1 86.8 A 0.864 0.864 0 0 1 59.307 86.941 A 0.603 0.603 0 0 1 59.5 87.4 Q 59.5 87.803 58.981 87.946 A 1.988 1.988 0 0 1 58.7 88 A 0.887 0.887 0 0 0 58.053 88.441 Q 57.953 88.603 57.882 88.822 A 2.793 2.793 0 0 0 57.8 89.15 A 7.584 7.584 0 0 0 57.667 90.572 A 8.035 8.035 0 0 0 57.7 91.3 Q 58.5 91.8 58.85 92.55 Q 59.2 93.3 59.2 94.1 A 3.933 3.933 0 0 1 58.937 95.562 A 3.606 3.606 0 0 1 58 96.9 A 3.473 3.473 0 0 1 58.08 97.323 A 2.713 2.713 0 0 1 58.1 97.65 L 58.1 98.4 Q 58.1 101.5 56.1 103.85 A 13.382 13.382 0 0 1 52.606 106.737 A 16.623 16.623 0 0 1 50.9 107.6 Q 47.7 109 44.2 109.3 A 5.97 5.97 0 0 1 44.747 109.656 Q 45.219 110 45.75 110.5 A 5.96 5.96 0 0 1 46.311 111.1 Q 46.713 111.6 46.9 112.1 Q 47.038 112.376 47.081 112.604 A 1.064 1.064 0 0 1 47.1 112.8 L 47.1 113.4 Q 47.1 114.7 46.2 115.35 A 4.264 4.264 0 0 1 45.6 115.717 Q 45.261 115.885 44.937 115.953 A 2.111 2.111 0 0 1 44.5 116 Q 43.8 116 43.8 115.4 A 0.724 0.724 0 0 1 43.896 115.05 Q 43.961 114.931 44.07 114.813 A 2.052 2.052 0 0 1 44.3 114.6 Q 44.8 114.1 44.8 113.5 A 4.197 4.197 0 0 0 44.595 112.231 Q 44.44 111.741 44.168 111.233 A 7.065 7.065 0 0 0 44.15 111.2 Q 43.64 110.258 43.037 109.686 A 3.81 3.81 0 0 0 42.7 109.4 Q 40.122 109.529 37.877 108.993 A 14.048 14.048 0 0 1 35.5 108.2 A 22.491 22.491 0 0 1 31.498 105.802 A 30.694 30.694 0 0 1 28.25 103 A 24.163 24.163 0 0 1 23.818 96.943 A 29.592 29.592 0 0 1 22.6 94.3 A 38.235 38.235 0 0 1 21.916 95.521 A 27.772 27.772 0 0 1 21.25 96.6 A 7.518 7.518 0 0 1 20.349 97.723 A 9.844 9.844 0 0 1 19.5 98.5 A 3.681 3.681 0 0 1 19.506 98.704 Q 19.506 100.377 17.95 101.65 Q 16.3 103 14.3 103.75 A 19.326 19.326 0 0 1 13.357 104.078 Q 12.344 104.399 11.624 104.476 A 4.008 4.008 0 0 1 11.2 104.5 A 7.152 7.152 0 0 1 10.532 104.465 Q 9.651 104.381 8.35 104.1 Q 6.5 103.7 4.65 102.75 Q 2.8 101.8 1.9 100.2 Q 2.2 100.3 2.65 100.3 L 3.5 100.3 A 8.462 8.462 0 0 0 4.891 100.176 Q 5.974 99.995 7.25 99.55 A 7.358 7.358 0 0 0 9.003 98.637 Q 10.293 97.745 11.6 96.2 A 5.046 5.046 0 0 1 12.779 95.135 A 4.052 4.052 0 0 1 15 94.5 Q 16.4 94.5 17.6 95.25 Q 18.8 96 19.3 97.3 A 6.86 6.86 0 0 0 20.42 96.011 A 8.405 8.405 0 0 0 20.85 95.3 A 6.231 6.231 0 0 0 21.319 94.163 Q 21.585 93.299 21.7 92.2 A 0.319 0.319 0 0 1 21.705 92.144 Q 21.711 92.113 21.723 92.089 A 0.148 0.148 0 0 1 21.75 92.05 L 21.8 92 A 34.958 34.958 0 0 1 20.942 88.172 A 38.549 38.549 0 0 1 20.85 87.6 A 31.425 31.425 0 0 1 20.507 83.461 A 35.154 35.154 0 0 1 20.5 82.8 Q 20.5 80.2 20.9 77.4 A 38.12 38.12 0 0 1 21.734 73.272 A 44.51 44.51 0 0 1 22.2 71.6 Q 17.9 70.3 13.9 67.8 A 0.67 0.67 0 0 0 13.769 67.753 Q 13.564 67.7 13.2 67.7 A 2.875 2.875 0 0 0 12.556 67.781 Q 11.942 67.923 11.161 68.315 A 11.05 11.05 0 0 0 10.9 68.45 A 9.501 9.501 0 0 0 9.59 69.29 A 7.382 7.382 0 0 0 8.6 70.2 A 3.018 3.018 0 0 0 8.259 70.654 Q 7.809 71.398 8.078 72.141 A 1.885 1.885 0 0 0 8.1 72.2 Z M 22.6 70.4 Q 23.2 68.6 24 66.7 Q 24.8 64.8 25.8 62.9 A 45.794 45.794 0 0 1 29.967 56.161 A 56.079 56.079 0 0 1 32.75 52.7 Q 37.1 47.7 42.2 43 Q 40.4 39.3 37.4 36.3 A 28.553 28.553 0 0 0 31.768 31.892 A 26.44 26.44 0 0 0 30.9 31.4 A 24.486 24.486 0 0 0 26.149 29.343 A 18.545 18.545 0 0 0 20.7 28.5 A 16.066 16.066 0 0 0 14.766 29.581 A 15.134 15.134 0 0 0 12.1 30.95 Q 8.3 33.4 6.1 37.55 A 19.085 19.085 0 0 0 3.909 46.078 A 22.374 22.374 0 0 0 3.9 46.7 A 22.432 22.432 0 0 0 5.195 54.098 A 27.684 27.684 0 0 0 6.3 56.8 A 25.461 25.461 0 0 0 9.977 62.54 A 21.982 21.982 0 0 0 13.25 65.65 A 27.488 27.488 0 0 0 21.669 70.121 A 26.208 26.208 0 0 0 22.6 70.4 Z M 45.6 55.9 L 44.1 55.6 Q 44.4 53.8 44.4 52.1 Q 44.4 48.6 43.2 45.3 A 120.633 120.633 0 0 0 36.523 52.902 A 110.268 110.268 0 0 0 35.65 54 A 56.385 56.385 0 0 0 30.105 62.514 A 52.177 52.177 0 0 0 29.8 63.1 A 82.84 82.84 0 0 0 27.187 69.014 A 71.732 71.732 0 0 0 26.4 71.1 Q 27.1 71.2 27.8 71.25 Q 28.5 71.3 29.2 71.3 Q 35 71.3 40.15 68.55 A 21.684 21.684 0 0 0 47.56 61.987 A 26.473 26.473 0 0 0 48.65 60.35 A 22.679 22.679 0 0 0 51.321 53.812 Q 52.008 50.999 52.166 47.74 A 39.726 39.726 0 0 0 52.2 46.8 Q 52.3 44.2 52.2 41.75 Q 52.1 39.3 51.9 36.9 Q 50 38.7 48.05 40.5 Q 46.1 42.3 44.3 44.2 Q 45.1 46.2 45.55 48.25 Q 46 50.3 46 52.3 Q 46 53.2 45.9 54.1 Q 45.8 55 45.6 55.9 Z M 190.4 40.3 Q 193.6 38.5 197.85 34.8 A 130.749 130.749 0 0 0 203.222 29.843 A 155.59 155.59 0 0 0 206.5 26.55 A 168.601 168.601 0 0 0 213.221 19.189 A 150.085 150.085 0 0 0 214.65 17.5 A 101.065 101.065 0 0 0 217.206 14.312 Q 218.378 12.784 219.32 11.409 A 45.774 45.774 0 0 0 220.5 9.6 A 29.394 29.394 0 0 0 221.186 8.422 Q 221.772 7.353 222.1 6.5 A 9.831 9.831 0 0 0 222.375 5.69 Q 222.6 4.905 222.6 4.3 Q 222.6 2.757 221.424 2.537 A 2.306 2.306 0 0 0 221 2.5 A 4.262 4.262 0 0 0 219.63 2.756 Q 218.347 3.195 216.698 4.389 A 25.456 25.456 0 0 0 215.4 5.4 Q 212.9 7.5 210.7 10.05 A 178.194 178.194 0 0 0 209.682 11.241 Q 208.275 12.9 207.6 13.8 Q 203 19.9 198.7 27.05 A 434.236 434.236 0 0 1 193.443 35.577 A 354.57 354.57 0 0 1 190.4 40.3 Z M 70.3 68.3 Q 72.4 68.3 74.8 67 Q 76.9 65.8 78.65 64 Q 80.216 62.39 81.261 60.94 A 18.644 18.644 0 0 0 81.5 60.6 Q 80.4 60.1 79.6 58.75 A 5.465 5.465 0 0 1 78.976 57.132 Q 78.8 56.338 78.8 55.4 Q 78.8 53.3 79.65 50.85 A 12.825 12.825 0 0 1 80.867 48.268 A 10.748 10.748 0 0 1 82.05 46.7 A 6.046 6.046 0 0 1 83.184 45.715 A 4.137 4.137 0 0 1 85.5 45 Q 86.63 45 87.361 45.532 A 2.458 2.458 0 0 1 87.45 45.6 Q 88.2 46.2 88.2 47 A 3.546 3.546 0 0 0 88.315 46.659 Q 88.445 46.203 88.55 45.5 A 13.297 13.297 0 0 0 88.672 44.312 A 17.194 17.194 0 0 0 88.7 43.3 A 10.702 10.702 0 0 0 88.626 41.987 Q 88.427 40.386 87.7 39.55 A 3.286 3.286 0 0 0 85.465 38.423 A 4.621 4.621 0 0 0 85 38.4 A 5.397 5.397 0 0 0 83.934 38.51 A 6.364 6.364 0 0 0 83.55 38.6 A 16.027 16.027 0 0 0 82.398 38.956 A 18.513 18.513 0 0 0 82 39.1 A 16.452 16.452 0 0 0 78.852 40.829 Q 76.676 42.33 74.45 44.7 Q 70.6 48.8 68.6 53.8 A 31.558 31.558 0 0 0 67.92 55.684 Q 67.601 56.657 67.299 57.755 A 54.335 54.335 0 0 0 67.1 58.5 Q 66.4 61.2 66.4 63.5 A 9.309 9.309 0 0 0 66.482 64.776 Q 66.691 66.287 67.443 67.092 A 2.725 2.725 0 0 0 67.55 67.2 Q 68.7 68.3 70.3 68.3 Z M 145.7 67.3 A 5.781 5.781 0 0 0 147.663 66.937 Q 148.773 66.538 149.95 65.7 Q 152.13 64.15 154.357 61.709 A 38.955 38.955 0 0 0 154.5 61.55 Q 156.8 59 158.7 56.1 Q 160.3 53.7 161.85 51 A 45.233 45.233 0 0 0 163.745 47.335 A 38.686 38.686 0 0 0 164.45 45.7 A 16.652 16.652 0 0 0 165.12 43.708 Q 165.394 42.67 165.47 41.725 A 8.943 8.943 0 0 0 165.5 41 A 6.557 6.557 0 0 0 165.409 39.852 Q 165.042 37.8 163.2 37.8 A 4.546 4.546 0 0 0 161.888 38.01 Q 161.304 38.186 160.667 38.511 A 11.671 11.671 0 0 0 159.5 39.2 A 23.339 23.339 0 0 0 157.255 40.913 A 31.45 31.45 0 0 0 155.25 42.8 Q 153.1 45 151.25 47.55 A 33.171 33.171 0 0 0 149.497 50.217 A 25.421 25.421 0 0 0 148.3 52.5 L 146.85 55.4 A 55.203 55.203 0 0 0 145.452 58.431 A 65.988 65.988 0 0 0 144.65 60.4 Q 143.6 63.1 143.6 65.1 A 3.328 3.328 0 0 0 143.701 65.957 Q 144.06 67.3 145.7 67.3 Z M 56.8 30.4 Q 59.4 28.2 62.5 25.7 A 131.905 131.905 0 0 0 67.658 21.325 A 118.877 118.877 0 0 0 68.35 20.7 A 42.101 42.101 0 0 0 70.237 18.881 Q 71.106 17.986 71.794 17.149 A 19.669 19.669 0 0 0 72.6 16.1 A 23.032 23.032 0 0 0 73.735 14.424 Q 74.563 13.069 75 11.85 Q 75.621 10.12 75.692 8.666 A 7.596 7.596 0 0 0 75.7 8.3 Q 75.7 6.9 75.15 5.75 A 6.147 6.147 0 0 0 73.92 4.006 A 5.849 5.849 0 0 0 73.7 3.8 A 6.782 6.782 0 0 0 69.641 2.217 A 8.721 8.721 0 0 0 69.1 2.2 A 9.662 9.662 0 0 0 66.2 2.662 A 12.21 12.21 0 0 0 64.8 3.2 A 10.888 10.888 0 0 0 61.965 5.095 A 13.673 13.673 0 0 0 60.8 6.3 A 24.284 24.284 0 0 0 58.477 9.603 A 18.143 18.143 0 0 0 56.8 13.4 Q 55.7 17 55.7 20.8 Q 55.7 23.2 56.05 25.6 Q 56.4 28 56.8 30.4 Z M 9.05 60.753 A 0.616 0.616 0 0 0 9.3 60.8 A 0.5 0.5 0 0 0 9.725 60.594 Q 9.855 60.42 9.9 60.1 A 11.208 11.208 0 0 1 10.054 59.177 A 9.263 9.263 0 0 1 10.7 57.2 A 4.732 4.732 0 0 1 11.048 56.58 Q 11.384 56.07 11.88 55.576 A 9.633 9.633 0 0 1 12.9 54.7 A 6.038 6.038 0 0 0 13.482 54.992 A 6.229 6.229 0 0 0 16 55.5 A 7.113 7.113 0 0 0 17.488 55.344 A 7.693 7.693 0 0 0 20 54.3 A 12.618 12.618 0 0 0 20.936 53.673 Q 21.449 53.292 21.84 52.906 A 5.24 5.24 0 0 0 22.55 52.05 A 36.806 36.806 0 0 0 22.649 51.898 Q 22.99 51.37 23.277 50.885 A 21.687 21.687 0 0 0 23.8 49.95 Q 24.3 49 25.15 48.45 A 2.309 2.309 0 0 1 25.576 48.238 Q 26.454 47.9 28.1 47.9 Q 28.5 47.9 28.9 47.95 Q 29.3 48 29.7 48.1 Q 29.8 47.9 29.8 47.5 A 0.439 0.439 0 0 0 29.796 47.438 Q 29.74 47.047 29 46.4 A 3.812 3.812 0 0 0 28.827 46.255 Q 28.345 45.875 27.71 45.622 A 6.379 6.379 0 0 0 26.6 45.3 A 14.664 14.664 0 0 0 25.643 45.142 A 17.137 17.137 0 0 0 23.4 45 A 19.886 19.886 0 0 0 22.291 45.031 A 22.582 22.582 0 0 0 18.85 45.5 Q 17.455 45.797 16.36 46.2 A 10.821 10.821 0 0 0 15 46.8 Q 14.11 47.269 13.428 47.826 A 6.473 6.473 0 0 0 12.15 49.2 A 7.476 7.476 0 0 0 11.99 49.446 Q 11.66 49.977 11.468 50.493 A 4.016 4.016 0 0 0 11.2 51.9 Q 11.2 52.9 11.8 53.7 Q 10.7 55.2 9.85 56.45 A 5.02 5.02 0 0 0 9.557 56.94 Q 9.237 57.55 9.042 58.306 A 9.273 9.273 0 0 0 8.8 59.7 A 3.3 3.3 0 0 0 8.781 59.821 Q 8.671 60.586 9.05 60.753 Z M 139.415 32.094 A 3.477 3.477 0 0 0 140.3 32.2 A 4.304 4.304 0 0 0 142.07 31.826 A 5.138 5.138 0 0 0 143.4 30.95 A 4.166 4.166 0 0 0 144.417 29.611 A 4.206 4.206 0 0 0 144.8 27.8 Q 144.8 26.5 144 25.65 A 2.596 2.596 0 0 0 142.729 24.91 A 3.713 3.713 0 0 0 141.8 24.8 A 4.165 4.165 0 0 0 140.017 25.201 A 5.369 5.369 0 0 0 138.8 26 A 3.848 3.848 0 0 0 137.632 27.707 A 4.618 4.618 0 0 0 137.4 29.2 Q 137.4 30.4 138.15 31.3 A 2.395 2.395 0 0 0 139.415 32.094 Z" vector-effect="non-scaling-stroke" />
  </g>
</svg>